<?xml version="1.0" encoding="UTF-8" standalone="no"?>
<!-- Created with Inkscape (http://www.inkscape.org/) -->

<svg
   xmlns:dc="http://purl.org/dc/elements/1.1/"
   xmlns:cc="http://creativecommons.org/ns#"
   xmlns:rdf="http://www.w3.org/1999/02/22-rdf-syntax-ns#"
   xmlns:svg="http://www.w3.org/2000/svg"
   xmlns="http://www.w3.org/2000/svg"
   xmlns:sodipodi="http://sodipodi.sourceforge.net/DTD/sodipodi-0.dtd"
   xmlns:inkscape="http://www.inkscape.org/namespaces/inkscape"
   id="svg3140"
   height="90"
   width="90"
   version="1.1"
   inkscape:version="0.48.5 r10040"
   sodipodi:docname="select.svg">
  <defs
     id="defs12" />
  <sodipodi:namedview
     pagecolor="#ffffff"
     bordercolor="#666666"
     borderopacity="1"
     objecttolerance="10"
     gridtolerance="10"
     guidetolerance="10"
     inkscape:pageopacity="0"
     inkscape:pageshadow="2"
     inkscape:window-width="1317"
     inkscape:window-height="744"
     id="namedview10"
     showgrid="false"
     inkscape:zoom="6.3199653"
     inkscape:cx="16.993517"
     inkscape:cy="45"
     inkscape:window-x="49"
     inkscape:window-y="24"
     inkscape:window-maximized="1"
     inkscape:current-layer="svg3140" />
  <metadata
     id="metadata3145">
    <rdf:RDF>
      <cc:Work
         rdf:about="">
        <dc:format>image/svg+xml</dc:format>
        <dc:type
           rdf:resource="http://purl.org/dc/dcmitype/StillImage" />
        <dc:title></dc:title>
      </cc:Work>
    </rdf:RDF>
  </metadata>
  <g
     id="layer1"
     transform="translate(0 -962.36)">
    <rect
       id="rect4198"
       style="color:#000000;fill:none"
       height="90"
       width="90"
       y="962.36"
       x="0" />
    <g
       id="g4978"
       transform="translate(-60 548)">
      <path
         id="path3759"
         style="fill:#808080"
         d="m66 438.36v42c0 18 3 18 30 18h18c27 0 30 0 30-18v-42c0-18-3-18-30-18h-18c-27 0-30 0-30 18zm30-12h18c24 0 24 0 24 12v42c0 12 0 12-24 12h-18c-24 0-24 0-24-12v-42c0-12 0-12 24-12z" />
      <rect
         id="rect3045"
         style="color:#000000;fill:none"
         transform="translate(60 414.36)"
         height="90"
         width="90"
         y=".000017383"
         x="0" />
    </g>
  </g>
</svg>
